<mxfile host="app.diagrams.net" agent="Mozilla/5.0 (Windows NT 10.0; Win64; x64) AppleWebKit/537.36 (KHTML, like Gecko) Chrome/133.0.0.0 Safari/537.36 Edg/133.0.0.0" version="26.0.11">
  <diagram name="Page-1" id="e3a06f82-3646-2815-327d-82caf3d4e204">
    <mxGraphModel dx="3620" dy="2224" grid="0" gridSize="9" guides="1" tooltips="1" connect="1" arrows="0" fold="1" page="0" pageScale="1.5" pageWidth="827" pageHeight="1169" background="none" math="0" shadow="0" adaptiveColors="simple">
      <root>
        <mxCell id="0" style=";html=1;" />
        <mxCell id="1" style=";html=1;" parent="0" />
        <mxCell id="YniaDwd4FCJ7JiX9tYDT-40" value="" style="rounded=0;whiteSpace=wrap;html=1;rotation=90;opacity=40;glass=0;fillColor=#fff2cc;strokeColor=none;imageAspect=0;movable=0;resizable=0;rotatable=0;deletable=0;editable=0;locked=1;connectable=0;" vertex="1" parent="1">
          <mxGeometry x="-759.55" y="36.59" width="899.95" height="433.04" as="geometry" />
        </mxCell>
        <mxCell id="YniaDwd4FCJ7JiX9tYDT-41" value="" style="rounded=1;whiteSpace=wrap;html=1;strokeColor=#666666;fillStyle=auto;fillColor=#f5f5f5;dashed=1;strokeWidth=1;dashPattern=1 4;arcSize=2;movable=1;resizable=1;rotatable=1;deletable=1;editable=1;locked=0;connectable=1;fontColor=#333333;" vertex="1" parent="1">
          <mxGeometry x="160.25" y="-216" width="700" height="930" as="geometry" />
        </mxCell>
        <mxCell id="YniaDwd4FCJ7JiX9tYDT-13" value="" style="whiteSpace=wrap;html=1;aspect=fixed;strokeColor=#788AA3;fontColor=#46495D;fillColor=none;resizeWidth=1;resizeHeight=1;resizable=1;dashed=1;dashPattern=8 8;" vertex="1" parent="1">
          <mxGeometry x="204.25" y="-80" width="354" height="354" as="geometry" />
        </mxCell>
        <mxCell id="6a7d8f32e03d9370-62" value="&lt;font style=&quot;font-size: 30px;&quot;&gt;Arquitetura Elabore&lt;/font&gt;" style="text;strokeColor=none;fillColor=none;html=1;fontSize=24;fontStyle=1;verticalAlign=middle;align=center;labelBackgroundColor=none;fontColor=#46495D;rounded=0;" parent="1" vertex="1">
          <mxGeometry x="1300" y="-542" width="861" height="40" as="geometry" />
        </mxCell>
        <mxCell id="YniaDwd4FCJ7JiX9tYDT-12" value="&lt;font style=&quot;font-size: 20px;&quot;&gt;&lt;b style=&quot;&quot;&gt;CLIENTE (ELABORE)&lt;/b&gt;&lt;/font&gt;&lt;div&gt;&lt;font style=&quot;font-size: 20px;&quot;&gt;&lt;b style=&quot;&quot;&gt;&lt;br&gt;&lt;/b&gt;&lt;/font&gt;&lt;/div&gt;" style="verticalLabelPosition=bottom;aspect=fixed;html=1;verticalAlign=top;strokeColor=none;align=center;outlineConnect=0;shape=mxgraph.citrix.laptop_2;fontColor=#46495D;fillColor=default;gradientColor=none;gradientDirection=north;noLabel=0;resizable=1;" vertex="1" parent="1">
          <mxGeometry x="-396.41" y="-121" width="167.63" height="125" as="geometry" />
        </mxCell>
        <mxCell id="YniaDwd4FCJ7JiX9tYDT-14" value="" style="shape=image;verticalLabelPosition=bottom;labelBackgroundColor=default;verticalAlign=top;aspect=fixed;imageAspect=0;image=https://www.nwtechnology.com/wp-content/uploads/2020/09/MLists.png;clipPath=inset(23.33% 67.67% 26% 7.33%);" vertex="1" parent="1">
          <mxGeometry x="235.59000000000003" y="-21" width="74.01" height="75" as="geometry" />
        </mxCell>
        <mxCell id="YniaDwd4FCJ7JiX9tYDT-15" value="" style="shape=image;verticalLabelPosition=bottom;labelBackgroundColor=default;verticalAlign=top;aspect=fixed;imageAspect=0;image=https://www.nwtechnology.com/wp-content/uploads/2020/09/MLists.png;clipPath=inset(23.33% 67.67% 26% 7.33%);" vertex="1" parent="1">
          <mxGeometry x="363.38" y="-4" width="76.01" height="77.03" as="geometry" />
        </mxCell>
        <mxCell id="YniaDwd4FCJ7JiX9tYDT-17" value="" style="shape=image;verticalLabelPosition=bottom;labelBackgroundColor=default;verticalAlign=top;aspect=fixed;imageAspect=0;image=https://www.nwtechnology.com/wp-content/uploads/2020/09/MLists.png;clipPath=inset(23.33% 67.67% 26% 7.33%);" vertex="1" parent="1">
          <mxGeometry x="252.09000000000003" y="93" width="76.04" height="77.06" as="geometry" />
        </mxCell>
        <mxCell id="YniaDwd4FCJ7JiX9tYDT-18" value="" style="shape=image;verticalLabelPosition=bottom;labelBackgroundColor=default;verticalAlign=top;aspect=fixed;imageAspect=0;image=https://www.nwtechnology.com/wp-content/uploads/2020/09/MLists.png;clipPath=inset(23.33% 67.67% 26% 7.33%);" vertex="1" parent="1">
          <mxGeometry x="465.07000000000005" y="77" width="70.37" height="71.31" as="geometry" />
        </mxCell>
        <mxCell id="YniaDwd4FCJ7JiX9tYDT-6" value="SHAREPOINT" style="shape=image;verticalLabelPosition=top;labelBackgroundColor=none;verticalAlign=bottom;aspect=fixed;imageAspect=0;image=https://hypertecdirect.com/wp-content/uploads/SharePoint-Logo.wine_-2048x1365.png;movable=1;resizable=1;rotatable=1;deletable=1;editable=1;locked=0;connectable=1;spacingLeft=10;labelPosition=center;align=center;fontSize=21;fontStyle=1;" vertex="1" parent="1">
          <mxGeometry x="268" y="-150" width="226.5" height="151" as="geometry" />
        </mxCell>
        <mxCell id="YniaDwd4FCJ7JiX9tYDT-21" value="" style="shape=image;verticalLabelPosition=bottom;labelBackgroundColor=default;verticalAlign=top;aspect=fixed;imageAspect=0;image=https://download.logo.wine/logo/Microsoft_Excel/Microsoft_Excel-Logo.wine.png;clipPath=inset(16% 21.67% 15.5% 25%);" vertex="1" parent="1">
          <mxGeometry x="743" y="76.99999999999997" width="89.74" height="76.85" as="geometry" />
        </mxCell>
        <mxCell id="YniaDwd4FCJ7JiX9tYDT-22" value="" style="shape=image;verticalLabelPosition=bottom;labelBackgroundColor=default;verticalAlign=top;aspect=fixed;imageAspect=0;image=https://download.logo.wine/logo/Microsoft_Excel/Microsoft_Excel-Logo.wine.png;clipPath=inset(16% 21.67% 15.5% 25%);" vertex="1" parent="1">
          <mxGeometry x="599" y="-27.07" width="88.76" height="76" as="geometry" />
        </mxCell>
        <mxCell id="YniaDwd4FCJ7JiX9tYDT-23" value="" style="shape=image;verticalLabelPosition=bottom;labelBackgroundColor=default;verticalAlign=top;aspect=fixed;imageAspect=0;image=https://download.logo.wine/logo/Microsoft_Excel/Microsoft_Excel-Logo.wine.png;clipPath=inset(16% 21.67% 15.5% 25%);" vertex="1" parent="1">
          <mxGeometry x="616" y="180.99999999999997" width="78.94" height="67.6" as="geometry" />
        </mxCell>
        <mxCell id="YniaDwd4FCJ7JiX9tYDT-27" value="" style="shape=link;html=1;rounded=0;strokeColor=#788AA3;fontColor=#46495D;fillColor=#B2C9AB;width=34;flowAnimation=1;strokeWidth=5;" edge="1" parent="1" source="YniaDwd4FCJ7JiX9tYDT-12">
          <mxGeometry width="100" relative="1" as="geometry">
            <mxPoint x="295.59000000000003" y="221.00445663010953" as="sourcePoint" />
            <mxPoint x="214" y="-26" as="targetPoint" />
          </mxGeometry>
        </mxCell>
        <mxCell id="YniaDwd4FCJ7JiX9tYDT-43" value="&lt;font style=&quot;font-size: 27px; color: rgb(102, 102, 102);&quot;&gt;&lt;b style=&quot;&quot;&gt;Data Flows&lt;/b&gt;&lt;/font&gt;" style="text;html=1;align=center;verticalAlign=middle;whiteSpace=wrap;rounded=0;" vertex="1" parent="1">
          <mxGeometry x="1338" y="-246" width="914" height="30" as="geometry" />
        </mxCell>
        <mxCell id="YniaDwd4FCJ7JiX9tYDT-44" value="&lt;font style=&quot;font-size: 27px; color: rgb(102, 102, 102);&quot;&gt;&lt;b style=&quot;&quot;&gt;Input dados&lt;/b&gt;&lt;/font&gt;" style="text;html=1;align=center;verticalAlign=middle;whiteSpace=wrap;rounded=0;" vertex="1" parent="1">
          <mxGeometry x="-529.75" y="-249" width="433.75" height="30" as="geometry" />
        </mxCell>
        <mxCell id="YniaDwd4FCJ7JiX9tYDT-77" style="edgeStyle=orthogonalEdgeStyle;rounded=0;orthogonalLoop=1;jettySize=auto;html=1;exitX=1;exitY=0.5;exitDx=0;exitDy=0;flowAnimation=1;strokeWidth=5;" edge="1" parent="1" source="YniaDwd4FCJ7JiX9tYDT-45" target="YniaDwd4FCJ7JiX9tYDT-76">
          <mxGeometry relative="1" as="geometry" />
        </mxCell>
        <mxCell id="YniaDwd4FCJ7JiX9tYDT-45" value="" style="rounded=1;whiteSpace=wrap;html=1;fillStyle=auto;dashed=1;strokeWidth=1;dashPattern=1 4;arcSize=3;movable=1;resizable=1;rotatable=1;deletable=1;editable=1;locked=0;connectable=1;" vertex="1" parent="1">
          <mxGeometry x="1332" y="-204" width="797" height="930" as="geometry" />
        </mxCell>
        <mxCell id="YniaDwd4FCJ7JiX9tYDT-48" value="" style="endArrow=none;dashed=1;html=1;dashPattern=1 3;strokeWidth=5;rounded=0;entryX=0;entryY=0.5;entryDx=0;entryDy=0;flowAnimation=1;curved=1;strokeColor=#666666;" edge="1" parent="1" target="YniaDwd4FCJ7JiX9tYDT-45">
          <mxGeometry width="50" height="50" relative="1" as="geometry">
            <mxPoint x="860" y="56" as="sourcePoint" />
            <mxPoint x="1371" y="69" as="targetPoint" />
          </mxGeometry>
        </mxCell>
        <mxCell id="YniaDwd4FCJ7JiX9tYDT-51" value="" style="rounded=1;whiteSpace=wrap;html=1;dashed=1;dashPattern=8 8;strokeColor=#CCCCCC;arcSize=9;shadow=1;" vertex="1" parent="1">
          <mxGeometry x="1427" y="-88.5" width="172" height="246.5" as="geometry" />
        </mxCell>
        <mxCell id="YniaDwd4FCJ7JiX9tYDT-52" value="" style="rounded=1;whiteSpace=wrap;html=1;fillColor=#dae8fc;strokeColor=#6c8ebf;" vertex="1" parent="1">
          <mxGeometry x="1451" y="-54" width="120" height="35" as="geometry" />
        </mxCell>
        <mxCell id="YniaDwd4FCJ7JiX9tYDT-53" value="" style="rounded=1;whiteSpace=wrap;html=1;fillColor=#dae8fc;strokeColor=#6c8ebf;" vertex="1" parent="1">
          <mxGeometry x="1453" y="-5.41" width="120" height="40.41" as="geometry" />
        </mxCell>
        <mxCell id="YniaDwd4FCJ7JiX9tYDT-54" value="" style="rounded=1;whiteSpace=wrap;html=1;fillColor=#dae8fc;strokeColor=#6c8ebf;" vertex="1" parent="1">
          <mxGeometry x="1453" y="54" width="120" height="34" as="geometry" />
        </mxCell>
        <mxCell id="YniaDwd4FCJ7JiX9tYDT-55" value="" style="rounded=1;whiteSpace=wrap;html=1;dashed=1;dashPattern=8 8;strokeColor=#CCCCCC;arcSize=9;shadow=1;" vertex="1" parent="1">
          <mxGeometry x="1425" y="186" width="172" height="246.5" as="geometry" />
        </mxCell>
        <mxCell id="YniaDwd4FCJ7JiX9tYDT-56" value="" style="rounded=1;whiteSpace=wrap;html=1;fillColor=#fff2cc;strokeColor=#d6b656;" vertex="1" parent="1">
          <mxGeometry x="1449" y="220.5" width="120" height="35" as="geometry" />
        </mxCell>
        <mxCell id="YniaDwd4FCJ7JiX9tYDT-57" value="" style="rounded=1;whiteSpace=wrap;html=1;fillColor=#fff2cc;strokeColor=#d6b656;" vertex="1" parent="1">
          <mxGeometry x="1451" y="269.09" width="120" height="33.91" as="geometry" />
        </mxCell>
        <mxCell id="YniaDwd4FCJ7JiX9tYDT-58" value="" style="rounded=1;whiteSpace=wrap;html=1;fillColor=#fff2cc;strokeColor=#d6b656;" vertex="1" parent="1">
          <mxGeometry x="1451" y="328.5" width="120" height="34" as="geometry" />
        </mxCell>
        <mxCell id="YniaDwd4FCJ7JiX9tYDT-59" value="" style="rounded=1;whiteSpace=wrap;html=1;dashed=1;dashPattern=8 8;strokeColor=#CCCCCC;arcSize=9;shadow=1;" vertex="1" parent="1">
          <mxGeometry x="1427" y="457" width="172" height="246.5" as="geometry" />
        </mxCell>
        <mxCell id="YniaDwd4FCJ7JiX9tYDT-60" value="" style="rounded=1;whiteSpace=wrap;html=1;fillColor=#d5e8d4;strokeColor=#82b366;" vertex="1" parent="1">
          <mxGeometry x="1451" y="491.5" width="120" height="35" as="geometry" />
        </mxCell>
        <mxCell id="YniaDwd4FCJ7JiX9tYDT-61" value="" style="rounded=1;whiteSpace=wrap;html=1;fillColor=#d5e8d4;strokeColor=#82b366;" vertex="1" parent="1">
          <mxGeometry x="1453" y="540.09" width="120" height="36.91" as="geometry" />
        </mxCell>
        <mxCell id="YniaDwd4FCJ7JiX9tYDT-62" value="" style="rounded=1;whiteSpace=wrap;html=1;fillColor=#d5e8d4;strokeColor=#82b366;" vertex="1" parent="1">
          <mxGeometry x="1453" y="599.5" width="120" height="34" as="geometry" />
        </mxCell>
        <mxCell id="YniaDwd4FCJ7JiX9tYDT-63" value="" style="rounded=1;whiteSpace=wrap;html=1;dashed=1;dashPattern=8 8;strokeColor=#CCCCCC;arcSize=9;shadow=0;" vertex="1" parent="1">
          <mxGeometry x="1821" y="-27.07" width="252" height="491.59" as="geometry" />
        </mxCell>
        <mxCell id="YniaDwd4FCJ7JiX9tYDT-64" value="" style="rounded=1;whiteSpace=wrap;html=1;fillColor=#dae8fc;strokeColor=#6c8ebf;" vertex="1" parent="1">
          <mxGeometry x="1866" y="18.91" width="162" height="35.09" as="geometry" />
        </mxCell>
        <mxCell id="YniaDwd4FCJ7JiX9tYDT-65" value="" style="rounded=1;whiteSpace=wrap;html=1;fillColor=#dae8fc;strokeColor=#6c8ebf;" vertex="1" parent="1">
          <mxGeometry x="1870" y="73.03" width="159" height="32.97" as="geometry" />
        </mxCell>
        <mxCell id="YniaDwd4FCJ7JiX9tYDT-67" value="" style="rounded=1;whiteSpace=wrap;html=1;fillColor=#fff2cc;strokeColor=#d6b656;" vertex="1" parent="1">
          <mxGeometry x="1870" y="128" width="160" height="35" as="geometry" />
        </mxCell>
        <mxCell id="YniaDwd4FCJ7JiX9tYDT-68" value="" style="rounded=1;whiteSpace=wrap;html=1;fillColor=#d5e8d4;strokeColor=#82b366;" vertex="1" parent="1">
          <mxGeometry x="1870" y="191" width="160" height="35" as="geometry" />
        </mxCell>
        <mxCell id="YniaDwd4FCJ7JiX9tYDT-70" value="" style="endArrow=none;dashed=1;html=1;rounded=0;curved=1;strokeColor=#314354;entryX=0.021;entryY=0.384;entryDx=0;entryDy=0;entryPerimeter=0;flowAnimation=1;fillColor=#647687;strokeWidth=4;" edge="1" parent="1" target="YniaDwd4FCJ7JiX9tYDT-63">
          <mxGeometry width="50" height="50" relative="1" as="geometry">
            <mxPoint x="1598" y="261" as="sourcePoint" />
            <mxPoint x="1594" y="211" as="targetPoint" />
            <Array as="points">
              <mxPoint x="1693" y="182" />
            </Array>
          </mxGeometry>
        </mxCell>
        <mxCell id="YniaDwd4FCJ7JiX9tYDT-71" value="" style="endArrow=none;dashed=1;html=1;rounded=0;curved=1;strokeColor=#314354;entryX=0.021;entryY=0.187;entryDx=0;entryDy=0;entryPerimeter=0;fillColor=#647687;flowAnimation=1;strokeWidth=4;" edge="1" parent="1" target="YniaDwd4FCJ7JiX9tYDT-63">
          <mxGeometry width="50" height="50" relative="1" as="geometry">
            <mxPoint x="1599" y="36.59" as="sourcePoint" />
            <mxPoint x="1822" y="-23.409999999999997" as="targetPoint" />
            <Array as="points">
              <mxPoint x="1711" y="-42" />
              <mxPoint x="1688" y="67" />
            </Array>
          </mxGeometry>
        </mxCell>
        <mxCell id="YniaDwd4FCJ7JiX9tYDT-74" value="&lt;font style=&quot;font-size: 27px; color: rgb(102, 102, 102);&quot;&gt;&lt;b style=&quot;&quot;&gt;Fonte de dados&lt;/b&gt;&lt;/font&gt;" style="text;html=1;align=center;verticalAlign=middle;whiteSpace=wrap;rounded=0;" vertex="1" parent="1">
          <mxGeometry x="164" y="-264" width="682" height="30" as="geometry" />
        </mxCell>
        <mxCell id="YniaDwd4FCJ7JiX9tYDT-75" value="" style="endArrow=none;dashed=1;html=1;rounded=0;curved=1;strokeColor=#314354;entryX=0;entryY=0.5;entryDx=0;entryDy=0;flowAnimation=1;fillColor=#647687;strokeWidth=4;" edge="1" parent="1" target="YniaDwd4FCJ7JiX9tYDT-63">
          <mxGeometry width="50" height="50" relative="1" as="geometry">
            <mxPoint x="1599" y="524" as="sourcePoint" />
            <mxPoint x="1827" y="425" as="targetPoint" />
            <Array as="points">
              <mxPoint x="1650" y="450" />
              <mxPoint x="1694" y="445" />
              <mxPoint x="1783" y="342" />
            </Array>
          </mxGeometry>
        </mxCell>
        <mxCell id="YniaDwd4FCJ7JiX9tYDT-85" style="edgeStyle=orthogonalEdgeStyle;rounded=0;orthogonalLoop=1;jettySize=auto;html=1;exitX=1;exitY=0.25;exitDx=0;exitDy=0;entryX=0;entryY=0.5;entryDx=0;entryDy=0;flowAnimation=1;strokeWidth=4;" edge="1" parent="1" source="YniaDwd4FCJ7JiX9tYDT-76" target="YniaDwd4FCJ7JiX9tYDT-84">
          <mxGeometry relative="1" as="geometry" />
        </mxCell>
        <mxCell id="YniaDwd4FCJ7JiX9tYDT-90" style="edgeStyle=orthogonalEdgeStyle;rounded=0;orthogonalLoop=1;jettySize=auto;html=1;exitX=1;exitY=0.25;exitDx=0;exitDy=0;flowAnimation=1;strokeWidth=4;" edge="1" parent="1" source="YniaDwd4FCJ7JiX9tYDT-76" target="YniaDwd4FCJ7JiX9tYDT-86">
          <mxGeometry relative="1" as="geometry" />
        </mxCell>
        <mxCell id="YniaDwd4FCJ7JiX9tYDT-91" style="edgeStyle=orthogonalEdgeStyle;rounded=0;orthogonalLoop=1;jettySize=auto;html=1;exitX=1;exitY=0.25;exitDx=0;exitDy=0;flowAnimation=1;strokeWidth=4;" edge="1" parent="1" source="YniaDwd4FCJ7JiX9tYDT-76" target="YniaDwd4FCJ7JiX9tYDT-87">
          <mxGeometry relative="1" as="geometry" />
        </mxCell>
        <mxCell id="YniaDwd4FCJ7JiX9tYDT-92" style="edgeStyle=orthogonalEdgeStyle;rounded=0;orthogonalLoop=1;jettySize=auto;html=1;exitX=1;exitY=0.25;exitDx=0;exitDy=0;entryX=0;entryY=0.75;entryDx=0;entryDy=0;flowAnimation=1;strokeWidth=4;" edge="1" parent="1" source="YniaDwd4FCJ7JiX9tYDT-76" target="YniaDwd4FCJ7JiX9tYDT-88">
          <mxGeometry relative="1" as="geometry" />
        </mxCell>
        <mxCell id="YniaDwd4FCJ7JiX9tYDT-76" value="" style="shape=image;verticalLabelPosition=bottom;labelBackgroundColor=default;verticalAlign=top;aspect=fixed;imageAspect=0;image=https://icon-library.com/images/data-set-icon/data-set-icon-21.jpg;imageBackground=default;" vertex="1" parent="1">
          <mxGeometry x="2633" y="30" width="295" height="295" as="geometry" />
        </mxCell>
        <mxCell id="YniaDwd4FCJ7JiX9tYDT-80" value="&lt;font style=&quot;font-size: 27px; color: rgb(102, 102, 102);&quot;&gt;&lt;b style=&quot;&quot;&gt;Datasets&lt;/b&gt;&lt;/font&gt;" style="text;html=1;align=center;verticalAlign=middle;whiteSpace=wrap;rounded=0;" vertex="1" parent="1">
          <mxGeometry x="2649" y="-35.41" width="257" height="30" as="geometry" />
        </mxCell>
        <mxCell id="YniaDwd4FCJ7JiX9tYDT-95" style="edgeStyle=orthogonalEdgeStyle;rounded=0;orthogonalLoop=1;jettySize=auto;html=1;exitX=0.5;exitY=0;exitDx=0;exitDy=0;flowAnimation=1;" edge="1" parent="1" source="YniaDwd4FCJ7JiX9tYDT-84" target="YniaDwd4FCJ7JiX9tYDT-12">
          <mxGeometry relative="1" as="geometry">
            <Array as="points">
              <mxPoint x="3630" y="-284" />
              <mxPoint x="-280" y="-284" />
            </Array>
          </mxGeometry>
        </mxCell>
        <mxCell id="YniaDwd4FCJ7JiX9tYDT-84" value="" style="shape=image;verticalLabelPosition=bottom;labelBackgroundColor=default;verticalAlign=top;aspect=fixed;imageAspect=0;image=https://img.icons8.com/color/2x/power-bi.png;" vertex="1" parent="1">
          <mxGeometry x="3517" y="-264" width="227" height="227" as="geometry" />
        </mxCell>
        <mxCell id="YniaDwd4FCJ7JiX9tYDT-86" value="" style="shape=image;verticalLabelPosition=bottom;labelBackgroundColor=default;verticalAlign=top;aspect=fixed;imageAspect=0;image=https://img.icons8.com/color/2x/power-bi.png;" vertex="1" parent="1">
          <mxGeometry x="3517" y="-46" width="227" height="227" as="geometry" />
        </mxCell>
        <mxCell id="YniaDwd4FCJ7JiX9tYDT-87" value="" style="shape=image;verticalLabelPosition=bottom;labelBackgroundColor=default;verticalAlign=top;aspect=fixed;imageAspect=0;image=https://img.icons8.com/color/2x/power-bi.png;fontStyle=1;" vertex="1" parent="1">
          <mxGeometry x="3514" y="147.5" width="227" height="227" as="geometry" />
        </mxCell>
        <mxCell id="YniaDwd4FCJ7JiX9tYDT-88" value="" style="shape=image;verticalLabelPosition=bottom;labelBackgroundColor=default;verticalAlign=top;aspect=fixed;imageAspect=0;image=https://img.icons8.com/color/2x/power-bi.png;" vertex="1" parent="1">
          <mxGeometry x="3517" y="356" width="227" height="227" as="geometry" />
        </mxCell>
      </root>
    </mxGraphModel>
  </diagram>
</mxfile>
